<svg width="340" height="275" viewBox="0 0 340 275" fill="none" xmlns="http://www.w3.org/2000/svg">
<path d="M0.0626815 18.6239L17.3577 259.122C17.9987 268.037 25.4497 274.924 34.3867 274.863L314.73 272.957C323.839 272.895 331.272 265.647 331.564 256.543L339.097 21.5319C339.401 12.0369 331.847 4.14391 322.347 4.03191L17.1757 0.450916C7.25269 0.333916 -0.649318 8.72592 0.0626815 18.6239Z" fill="url(#paint0_linear_18_42)"/>
<path opacity="0.75" d="M22.0243 43.2261L36.4853 248.183C36.8393 253.205 41.0303 257.09 46.0643 257.063L306.334 255.709C311.559 255.682 315.793 251.462 315.837 246.237L317.515 48.3831C317.559 43.1531 313.39 38.8601 308.161 38.7511L31.7513 33.0021C26.1333 32.8861 21.6283 37.6201 22.0243 43.2261Z" fill="white"/>
<path opacity="0.75" d="M22.0092 16.4177C22.2012 20.2597 25.3742 23.2747 29.2202 23.2717L134.088 23.1827C138.07 23.1797 141.296 19.9507 141.296 15.9687L141.296 13.2147C141.296 9.15371 137.946 5.8927 133.886 6.0027L29.0182 8.8447C24.9722 8.9557 21.8072 12.3737 22.0092 16.4177Z" fill="#7CF5FF"/>
<path d="M45.5975 61.0002L117.972 61.6021C121.019 61.6275 123.476 64.1041 123.476 67.151C123.476 70.2307 120.969 72.7206 117.889 72.7012L45.5453 72.2255C42.9802 72.2085 40.7608 70.4357 40.1772 67.9373L40.1481 67.8111C39.3302 64.3116 42.0046 60.9699 45.5975 61.0002Z" fill="url(#paint1_linear_18_42)"/>
<path d="M63.4773 81.8051C77.3976 82.157 106.026 82.5841 118.011 82.7564C121.044 82.8001 123.476 85.2718 123.476 88.3054L123.476 89.1147C123.476 92.1798 120.991 94.6649 117.926 94.6649L63.9141 94.6649C61.5055 94.6649 59.3711 93.1105 58.6321 90.8183L58.0642 89.0577C56.8909 85.4162 59.6538 81.708 63.4773 81.8051Z" fill="url(#paint2_linear_18_42)"/>
<path d="M62.2988 106.005L62.2988 106.906C62.2988 109.814 64.6553 112.171 67.5638 112.171L117.251 112.171C120.074 112.171 122.364 109.883 122.364 107.058C122.364 104.194 120.043 101.873 117.179 101.873L66.4305 101.873C64.1481 101.873 62.2988 103.722 62.2988 106.005Z" fill="url(#paint3_linear_18_42)"/>
<path d="M155.687 41L157.382 41C158.847 41 160.043 42.174 160.068 43.64L163.586 245.872C163.612 247.374 162.402 248.605 160.9 248.605C159.443 248.605 158.252 247.444 158.214 245.988L153.001 43.756C152.962 42.245 154.176 41 155.687 41Z" fill="url(#paint4_linear_18_42)"/>
<defs>
<linearGradient id="paint0_linear_18_42" x1="279.422" y1="-8.97198" x2="-32.5783" y2="391.029" gradientUnits="userSpaceOnUse">
<stop stop-color="#6439FF"/>
<stop offset="1" stop-color="#00CCDD"/>
</linearGradient>
<linearGradient id="paint1_linear_18_42" x1="134.345" y1="-30.6368" x2="47.5859" y2="130.141" gradientUnits="userSpaceOnUse">
<stop stop-color="#A737D5"/>
</linearGradient>
<linearGradient id="paint2_linear_18_42" x1="150.171" y1="-22.0967" x2="63.4117" y2="138.681" gradientUnits="userSpaceOnUse">
<stop offset="1" stop-color="#001F3F"/>
</linearGradient>
<linearGradient id="paint3_linear_18_42" x1="159.183" y1="-17.2329" x2="72.4242" y2="143.545" gradientUnits="userSpaceOnUse">
<stop offset="1" stop-color="#4F75FF"/>
</linearGradient>
<linearGradient id="paint4_linear_18_42" x1="225.495" y1="20.2684" x2="153.995" y2="152.769" gradientUnits="userSpaceOnUse">
<stop stop-color="#161D6F"/>
</linearGradient>
</defs>
</svg>
